<svg xmlns="http://www.w3.org/2000/svg" width="1200" height="560" viewBox="0 0 1200 560">
<rect width="1200" height="560" fill="white"/>
<text x="40" y="42" font-family="system-ui,sans-serif" font-size="24" font-weight="700">V2X-09 deterministic city morphology comparison</text>
<text x="40" y="68" font-family="system-ui,sans-serif" font-size="13">Presentation-only evidence from the provider; no physical geometry or empirical city claim.</text>
<g transform="translate(40 100)"><rect x="0" y="0" width="350" height="410" rx="16" fill="#f7f7f7" stroke="#222"/><text x="18" y="32" font-family="system-ui,sans-serif" font-size="18" font-weight="700">Wet / advanced</text><text x="18" y="58" font-family="system-ui,sans-serif" font-size="13">DENSE_NETWORKED_CENTER</text><rect x="22" y="88" width="140" height="32" rx="8" fill="white" stroke="#555"/><text x="30" y="108" font-family="system-ui,sans-serif" font-size="10">CORE</text><rect x="177" y="88" width="140" height="32" rx="8" fill="white" stroke="#555"/><text x="185" y="108" font-family="system-ui,sans-serif" font-size="10">RESIDENTIAL</text><rect x="22" y="134" width="140" height="32" rx="8" fill="white" stroke="#555"/><text x="30" y="154" font-family="system-ui,sans-serif" font-size="10">AGRICULTURAL_HINTERLAND</text><rect x="177" y="134" width="140" height="32" rx="8" fill="white" stroke="#555"/><text x="185" y="154" font-family="system-ui,sans-serif" font-size="10">PRODUCTION</text><rect x="22" y="180" width="140" height="32" rx="8" fill="white" stroke="#555"/><text x="30" y="200" font-family="system-ui,sans-serif" font-size="10">MARKET_AND_STORAGE</text><rect x="177" y="180" width="140" height="32" rx="8" fill="white" stroke="#555"/><text x="185" y="200" font-family="system-ui,sans-serif" font-size="10">PORT_OR_WATER_TERMINAL</text><rect x="22" y="226" width="140" height="32" rx="8" fill="white" stroke="#555"/><text x="30" y="246" font-family="system-ui,sans-serif" font-size="10">CIVIC_COORDINATION</text><rect x="177" y="226" width="140" height="32" rx="8" fill="white" stroke="#555"/><text x="185" y="246" font-family="system-ui,sans-serif" font-size="10">RUIN_OR_DAMAGE_LAYER</text><text x="18" y="330" font-family="system-ui,sans-serif" font-size="12">Roads: LOCAL_OR_REGIONAL_CORRIDORS</text><text x="18" y="352" font-family="system-ui,sans-serif" font-size="12">History: FOUNDATION, INFRASTRUCTURE_ADDITION, DAMAGE_OR_STRESS</text><text x="18" y="374" font-family="system-ui,sans-serif" font-size="12">Economy closure: PASS</text><text x="18" y="396" font-family="system-ui,sans-serif" font-size="12">Impact proposals: 2</text></g><g transform="translate(420 100)"><rect x="0" y="0" width="350" height="410" rx="16" fill="#f7f7f7" stroke="#222"/><text x="18" y="32" font-family="system-ui,sans-serif" font-size="18" font-weight="700">Dry / advanced</text><text x="18" y="58" font-family="system-ui,sans-serif" font-size="13">DENSE_NETWORKED_CENTER</text><rect x="22" y="88" width="140" height="32" rx="8" fill="white" stroke="#555"/><text x="30" y="108" font-family="system-ui,sans-serif" font-size="10">CORE</text><rect x="177" y="88" width="140" height="32" rx="8" fill="white" stroke="#555"/><text x="185" y="108" font-family="system-ui,sans-serif" font-size="10">RESIDENTIAL</text><rect x="22" y="134" width="140" height="32" rx="8" fill="white" stroke="#555"/><text x="30" y="154" font-family="system-ui,sans-serif" font-size="10">AGRICULTURAL_HINTERLAND</text><rect x="177" y="134" width="140" height="32" rx="8" fill="white" stroke="#555"/><text x="185" y="154" font-family="system-ui,sans-serif" font-size="10">PRODUCTION</text><rect x="22" y="180" width="140" height="32" rx="8" fill="white" stroke="#555"/><text x="30" y="200" font-family="system-ui,sans-serif" font-size="10">MARKET_AND_STORAGE</text><rect x="177" y="180" width="140" height="32" rx="8" fill="white" stroke="#555"/><text x="185" y="200" font-family="system-ui,sans-serif" font-size="10">CIVIC_COORDINATION</text><rect x="22" y="226" width="140" height="32" rx="8" fill="white" stroke="#555"/><text x="30" y="246" font-family="system-ui,sans-serif" font-size="10">RUIN_OR_DAMAGE_LAYER</text><text x="18" y="330" font-family="system-ui,sans-serif" font-size="12">Roads: LOCAL_OR_REGIONAL_CORRIDORS</text><text x="18" y="352" font-family="system-ui,sans-serif" font-size="12">History: FOUNDATION, INFRASTRUCTURE_ADDITION, DAMAGE_OR_STRESS</text><text x="18" y="374" font-family="system-ui,sans-serif" font-size="12">Economy closure: PASS</text><text x="18" y="396" font-family="system-ui,sans-serif" font-size="12">Impact proposals: 2</text></g><g transform="translate(800 100)"><rect x="0" y="0" width="350" height="410" rx="16" fill="#f7f7f7" stroke="#222"/><text x="18" y="32" font-family="system-ui,sans-serif" font-size="18" font-weight="700">Abandoned / layered</text><text x="18" y="58" font-family="system-ui,sans-serif" font-size="13">ABANDONED_LAYERED</text><rect x="22" y="88" width="140" height="32" rx="8" fill="white" stroke="#555"/><text x="30" y="108" font-family="system-ui,sans-serif" font-size="10">RUIN_OR_DAMAGE_LAYER</text><text x="18" y="330" font-family="system-ui,sans-serif" font-size="12">Roads: RELICT_OR_UNSUPPORTED</text><text x="18" y="352" font-family="system-ui,sans-serif" font-size="12">History: FOUNDATION, INFRASTRUCTURE_ADDITION, DAMAGE_OR_STRESS, ABANDONMENT</text><text x="18" y="374" font-family="system-ui,sans-serif" font-size="12">Economy closure: PASS</text><text x="18" y="396" font-family="system-ui,sans-serif" font-size="12">Impact proposals: 2</text></g></svg>
